<?xml version="1.0" encoding="utf-8"?>
<!-- Generator: Adobe Illustrator 26.0.0, SVG Export Plug-In . SVG Version: 6.00 Build 0)  -->
<svg version="1.1" id="레이어_1" xmlns="http://www.w3.org/2000/svg" xmlns:xlink="http://www.w3.org/1999/xlink" x="0px"
	 y="0px" viewBox="0 0 595.3 841.9" style="enable-background:new 0 0 595.3 841.9;" xml:space="preserve">
<style type="text/css">
	.st0{fill:#121309;}
</style>
<g>
	<path class="st0" d="M496.2,460.2h16.6l-32.8-78l-16,0c0.9,2.7-0.7,7.9-2.5,12.4l-26.3,65.5h9.2l11.6-28.5h28.5L496.2,460.2z
		 M458.8,425.3l11.6-28.4l11.6,28.4H458.8z"/>
	<path class="st0" d="M228.8,423.5h33.5v-5.6h-33.5v-30h37.9v-5.6l-55.9,0c0,0,1.7,3,1.7,11.1v66.9h55.2v-5.6h-38.9L228.8,423.5
		L228.8,423.5z"/>
	<path class="st0" d="M135.2,417.9h-34.5v-35.6h-18c0,0,1.7,3,1.7,11.1v66.9h16.3v-36.1h34.5v36.1h16.3v-78h-16.3V417.9z"/>
	<path class="st0" d="M362.9,421.8c3.5-1.1,7-2.7,10.4-5.2c12-9,9-24.3,1.1-29.4c-5.1-3.3-10.2-4.8-20.3-4.8h-31.9
		c0,0,1.7,3,1.7,11.1v66.9h16.3v-36.4h4.3c0.2,0,0.5,0,0.8,0c4.9,0.3,7.5,1.8,11.6,7.1l20.3,29.3h16.6c0,0-21.7-30.1-23.5-32.5
		C368.8,425.8,366.4,422.8,362.9,421.8 M343.9,418.3h-3.7v-30.6h3.5c5.8,0,14.2,0.1,18.5,6.5c4.1,6.1,2.7,13.3-0.3,17.4
		C358.1,416.7,353.9,418.3,343.9,418.3"/>
</g>
</svg>
